<?xml version="1.0" encoding="UTF-8"?>
<!DOCTYPE svg PUBLIC "-//W3C//DTD SVG 1.1//EN" "http://www.w3.org/Graphics/SVG/1.1/DTD/svg11.dtd">
<!-- Creator: CorelDRAW X6 -->
<svg xmlns="http://www.w3.org/2000/svg" xml:space="preserve" width="86.5414mm" height="74.602mm" version="1.1" style="shape-rendering:geometricPrecision; text-rendering:geometricPrecision; image-rendering:optimizeQuality; fill-rule:evenodd; clip-rule:evenodd"
viewBox="0 0 8654 7460"
 xmlns:xlink="http://www.w3.org/1999/xlink">
 <defs>
  <style type="text/css">
   <![CDATA[
    .fil7 {fill:none}
    .fil6 {fill:black}
    .fil4 {fill:#00ADED}
    .fil2 {fill:white}
    .fil1 {fill:black;fill-rule:nonzero}
    .fil3 {fill:url(#id1)}
    .fil5 {fill:url(#id2);fill-rule:nonzero}
    .fil0 {fill:url(#id3);fill-rule:nonzero}
   ]]>
  </style>
   <clipPath id="id0">
    <path d="M4327 38l-2712 0 0 3651c0,1565 2231,2726 2712,2726 481,0 2712,-1160 2712,-2726l0 -3651 -2712 0z"/>
   </clipPath>
  <linearGradient id="id1" gradientUnits="userSpaceOnUse" x1="4327.07" y1="2957.08" x2="4327.07" y2="37.5">
   <stop offset="0" style="stop-color:#F4C92C"/>
   <stop offset="1" style="stop-color:#FFFF16"/>
  </linearGradient>
  <linearGradient id="id2" gradientUnits="userSpaceOnUse" x1="4327.07" y1="2987.93" x2="4327.07" y2="1870.75">
   <stop offset="0" style="stop-color:#419F4B"/>
   <stop offset="1" style="stop-color:#84B947"/>
  </linearGradient>
  <linearGradient id="id3" gradientUnits="userSpaceOnUse" x1="4327.07" y1="7422.7" x2="4327.07" y2="6288.28">
   <stop offset="0" style="stop-color:#FFD22D"/>
   <stop offset="1" style="stop-color:#FFFD17"/>
  </linearGradient>
 </defs>
 <g id="Layer_x0020_1">
  <metadata id="CorelCorpID_0Corel-Layer"/>
  <path class="fil0" d="M1607 6288l-1570 0 589 448 -589 448 1177 0m392 -658l0 -238 -392 238m6224 658l1177 0 -589 -448 589 -448 -1570 0m392 238l-392 -238 0 238m-5832 896l6224 0 0 -896 -6224 0 0 896zm-392 -1134m-491 224m0 448m294 224m981 -777m-196 0m6617 777m294 -224m0 -448m-491 -224m-589 119m-196 0m-2720 1015m3112 -448m-3112 -448m-3112 448"/>
  <path class="fil1" d="M1474 6326l-1325 0 500 381c16,13 20,36 7,52 -2,3 -5,5 -8,8l-500 380 1029 0 0 -621c0,-15 9,-28 21,-34l275 -167zm-1436 -75l1570 0c21,0 38,17 38,38l0 201 5364 0 0 -201 0 0c0,-7 2,-13 5,-19 7,-12 19,-18 32,-18l0 0 1570 0 0 0c11,0 22,5 30,15 13,16 9,40 -7,52l-550 418 548 417c10,7 17,18 17,31 0,21 -17,38 -38,38l-1140 0 0 201c0,21 -17,38 -38,38l-6224 0c-21,0 -38,-17 -38,-38l0 -201 -1140 0 0 0c-11,0 -22,-5 -30,-15 -13,-16 -9,-40 7,-52l550 -418 -548 -417c-10,-7 -17,-18 -17,-31 0,-21 17,-38 38,-38zm1532 238l0 -134 -221 134 221 0zm5907 658l1029 0 -500 -381c-16,-13 -20,-36 -7,-52 2,-3 5,-5 8,-8l500 -380 -1325 0 275 167c13,6 21,19 21,34l0 621zm-171 -658l-221 -134 0 134 221 0zm-6053 896l6149 0 0 -821 -6149 0 0 821z"/>
  <path class="fil1" d="M1691 6965l-112 0 0 85 49 0c-4,40 -27,67 -61,67 -45,0 -62,-65 -62,-131 0,-65 17,-131 62,-131 28,0 51,23 53,60l70 0c-6,-110 -66,-159 -121,-159 -81,0 -133,102 -133,229 0,128 52,229 133,229 25,0 56,-15 75,-57l4 48 45 0 0 -241zm45 241l217 0 0 -99 -147 0 0 -84 131 0 0 -89 -131 0 0 -77 143 0 0 -92 -213 0 0 440zm257 0l66 0 0 -334 1 0 56 334 53 0 56 -334 1 0 0 334 66 0 0 -440 -103 0 -46 293 -1 0 -46 -293 -103 0 0 440zm454 -318l1 0 30 154 -61 0 30 -154zm-135 318l72 0 17 -79 93 0 16 79 73 0 -100 -440 -71 0 -100 440zm290 0l70 0 0 -181 92 0 0 181 70 0 0 -440 -70 0 0 160 -92 0 0 -160 -70 0 0 440zm396 0l70 0 0 -160 53 0c33,0 37,46 39,90 1,12 2,55 8,70l69 0c-9,-16 -10,-81 -11,-99 -2,-42 -10,-94 -39,-105l0 -1c28,-18 42,-63 42,-110 0,-89 -46,-124 -94,-124l-136 0 0 440zm70 -348l55 0c19,0 35,15 35,47 0,33 -11,52 -32,52l-58 0 0 -99zm201 348l70 0 0 -440 -70 0 0 440zm118 0l70 0 0 -147 57 0c59,0 97,-43 97,-152 0,-104 -47,-142 -97,-142l-127 0 0 440zm70 -348l47 0c21,0 37,17 37,58 0,40 -16,55 -37,55l-47 0 0 -113zm267 30l1 0 30 154 -61 0 30 -154zm-135 318l72 0 17 -79 93 0 16 79 73 0 -100 -440 -71 0 -100 440zm290 0l70 0 0 -181 92 0 0 181 70 0 0 -440 -70 0 0 160 -92 0 0 -160 -70 0 0 440zm733 -440l-70 0 -38 322 -1 0 -39 -322 -66 0 -39 322 -1 0 -38 -322 -70 0 72 440 71 0 37 -303 1 0 37 303 70 0 74 -440zm24 440l70 0 0 -440 -70 0 0 440zm188 -193l56 0c21,0 37,13 37,52 0,36 -15,49 -37,49l-56 0 0 -101zm-70 193l128 0c57,0 104,-32 104,-137 0,-50 -18,-91 -46,-104 21,-17 35,-49 35,-89 0,-92 -51,-112 -97,-110l-125 0 0 440zm70 -351l54 0c15,0 28,10 28,43 0,31 -16,42 -28,42l-54 0 0 -84zm308 33l1 0 30 154 -61 0 30 -154zm-135 318l72 0 17 -79 93 0 16 79 73 0 -100 -440 -71 0 -100 440zm618 -440l-70 0 -38 322 -1 0 -39 -322 -66 0 -39 322 -1 0 -38 -322 -70 0 72 440 71 0 37 -303 1 0 37 303 70 0 74 -440zm118 122l1 0 30 154 -61 0 30 -154zm-135 318l72 0 17 -79 93 0 16 79 73 0 -100 -440 -71 0 -100 440zm409 0l66 0 0 -334 1 0 56 334 53 0 56 -334 1 0 0 334 66 0 0 -440 -103 0 -46 293 -1 0 -46 -293 -103 0 0 440zm578 -440l-70 0 0 265c0,57 -13,86 -47,86 -34,0 -47,-29 -47,-86l0 -265 -70 0 0 258c0,128 36,191 116,191 81,0 116,-63 116,-191l0 -258zm46 440l70 0 0 -136 28 -49 72 185 87 0 -111 -267 99 -173 -87 0 -88 169 0 -169 -70 0 0 440zm490 -440l-229 0 0 99 80 0 0 341 70 0 0 -341 80 0 0 -99zm31 440l70 0 0 -440 -70 0 0 440z"/>
  <g>
  </g>
  <g style="clip-path:url(#id0)">
   <g>
    <path class="fil1" d="M3820 5950c137,0 205,40 273,79 59,34 118,69 234,68l0 0c116,0 175,-34 234,-68 68,-40 136,-79 273,-79 137,0 205,40 273,79 59,34 118,69 234,68l0 0c116,0 175,-34 234,-68 68,-40 136,-79 273,-79 137,0 205,40 273,79 59,34 118,69 234,68l0 0c116,0 175,-34 234,-68 68,-40 136,-79 273,-79 137,0 205,40 273,79 59,34 118,69 234,68l39 0 0 38 0 338 0 38 -38 0c-135,0 -203,-39 -271,-79 -60,-34 -119,-69 -236,-69 -117,0 -177,35 -236,69 -68,39 -136,79 -271,79 -135,0 -203,-39 -271,-79 -60,-34 -119,-69 -236,-69 -117,0 -177,35 -236,69 -68,39 -136,79 -271,79 -135,0 -203,-39 -271,-79 -60,-34 -119,-69 -236,-69 -117,0 -177,35 -236,69 -68,39 -136,79 -271,79 -135,0 -203,-39 -271,-79 -60,-34 -119,-69 -236,-69 -117,0 -177,35 -236,69 -68,39 -136,79 -271,79 -135,0 -203,-39 -271,-79 -60,-34 -119,-69 -236,-69 -117,0 -177,35 -236,69 -68,39 -136,79 -271,79 -135,0 -203,-39 -271,-79 -60,-34 -119,-69 -236,-69 -117,0 -177,35 -236,69 -68,39 -136,79 -271,79l-38 0 0 -38 0 -338 0 -38 39 0c116,0 175,-34 234,-68 68,-40 136,-79 273,-79 137,0 205,40 273,79 59,34 118,69 234,68l0 0c116,0 175,-34 234,-68 68,-40 136,-79 273,-79 137,0 205,40 273,79 59,34 118,69 234,68l0 0c116,0 175,-34 234,-68 68,-40 136,-79 273,-79zm234 145c-59,-34 -117,-69 -234,-69 -116,0 -175,34 -234,69 -68,40 -136,79 -273,79l0 0c-137,0 -205,-39 -273,-79 -59,-34 -117,-69 -234,-69 -116,0 -175,34 -234,69 -68,40 -136,79 -273,79l0 0c-137,0 -205,-39 -273,-79 -59,-34 -117,-69 -234,-69 -116,0 -175,34 -234,69 -61,36 -123,72 -235,78l0 262c90,-7 142,-37 194,-67 69,-40 137,-79 275,-79 137,0 206,40 275,79 59,34 118,68 232,68 114,0 173,-34 232,-68 69,-40 137,-79 275,-79 137,0 206,40 275,79 59,34 118,68 232,68 114,0 173,-34 232,-68 69,-40 137,-79 275,-79 137,0 206,40 275,79 59,34 118,68 232,68 114,0 173,-34 232,-68 69,-40 137,-79 275,-79 137,0 206,40 275,79 59,34 118,68 232,68 114,0 173,-34 232,-68 69,-40 137,-79 275,-79 137,0 206,40 275,79 59,34 118,68 232,68 114,0 173,-34 232,-68 69,-40 137,-79 275,-79 137,0 206,40 275,79 52,30 104,60 194,67l0 -262c-112,-6 -174,-42 -235,-78 -59,-34 -117,-69 -234,-69 -116,0 -175,34 -234,69 -68,40 -136,79 -273,79l0 0c-137,0 -205,-39 -273,-79 -59,-34 -117,-69 -234,-69 -116,0 -175,34 -234,69 -68,40 -136,79 -273,79l0 0c-137,0 -205,-39 -273,-79 -59,-34 -117,-69 -234,-69 -116,0 -175,34 -234,69 -68,40 -136,79 -273,79l0 0c-137,0 -205,-39 -273,-79z"/>
    <rect class="fil2" x="878" y="2957" width="6898" height="3716"/>
    <rect class="fil3" x="878" y="38" width="6898" height="2920"/>
    <path class="fil4" d="M3820 3619c254,0 254,149 507,148 254,1 254,-148 507,-148 254,0 254,149 507,148 254,1 254,-148 507,-148 254,0 254,149 507,148 254,1 254,-148 507,-148 254,0 254,149 507,148l0 338c-250,0 -254,-148 -507,-148 -254,0 -257,148 -507,148 -250,0 -254,-148 -507,-148 -254,0 -257,148 -507,148 -250,0 -254,-148 -507,-148 -254,0 -257,148 -507,148 -250,0 -254,-148 -507,-148 -254,0 -257,148 -507,148 -250,0 -254,-148 -507,-148 -254,0 -257,148 -507,148 -250,0 -254,-148 -507,-148 -254,0 -257,148 -507,148l0 -338c254,1 254,-148 507,-148 254,0 254,149 507,148 254,1 254,-148 507,-148 254,0 254,149 507,148 254,1 254,-148 507,-148z"/>
    <path class="fil1" d="M3820 3581c137,0 205,40 273,79 59,34 118,69 234,68l0 0c116,0 175,-34 234,-68 68,-40 136,-79 273,-79 137,0 205,40 273,79 59,34 118,69 234,68l0 0c116,0 175,-34 234,-68 68,-40 136,-79 273,-79 137,0 205,40 273,79 59,34 118,69 234,68l0 0c116,0 175,-34 234,-68 68,-40 136,-79 273,-79 137,0 205,40 273,79 59,34 118,69 234,68l39 0 0 38 0 338 0 38 -38 0c-135,0 -203,-39 -271,-79 -60,-34 -119,-69 -236,-69 -117,0 -177,35 -236,69 -68,39 -136,79 -271,79 -135,0 -203,-39 -271,-79 -60,-34 -119,-69 -236,-69 -117,0 -177,35 -236,69 -68,39 -136,79 -271,79 -135,0 -203,-39 -271,-79 -60,-34 -119,-69 -236,-69 -117,0 -177,35 -236,69 -68,39 -136,79 -271,79 -135,0 -203,-39 -271,-79 -60,-34 -119,-69 -236,-69 -117,0 -177,35 -236,69 -68,39 -136,79 -271,79 -135,0 -203,-39 -271,-79 -60,-34 -119,-69 -236,-69 -117,0 -177,35 -236,69 -68,39 -136,79 -271,79 -135,0 -203,-39 -271,-79 -60,-34 -119,-69 -236,-69 -117,0 -177,35 -236,69 -68,39 -136,79 -271,79l-38 0 0 -38 0 -338 0 -38 39 0c116,0 175,-34 234,-68 68,-40 136,-79 273,-79 137,0 205,40 273,79 59,34 118,69 234,68l0 0c116,0 175,-34 234,-68 68,-40 136,-79 273,-79 137,0 205,40 273,79 59,34 118,69 234,68l0 0c116,0 175,-34 234,-68 68,-40 136,-79 273,-79zm234 145c-59,-34 -117,-69 -234,-69 -116,0 -175,34 -234,69 -68,40 -136,79 -273,79l0 0c-137,0 -205,-39 -273,-79 -59,-34 -117,-69 -234,-69 -116,0 -175,34 -234,69 -68,40 -136,79 -273,79l0 0c-137,0 -205,-39 -273,-79 -59,-34 -117,-69 -234,-69 -116,0 -175,34 -234,69 -61,36 -123,72 -235,78l0 262c90,-7 142,-37 194,-67 69,-40 137,-79 275,-79 137,0 206,40 275,79 59,34 118,68 232,68 114,0 173,-34 232,-68 69,-40 137,-79 275,-79 137,0 206,40 275,79 59,34 118,68 232,68 114,0 173,-34 232,-68 69,-40 137,-79 275,-79 137,0 206,40 275,79 59,34 118,68 232,68 114,0 173,-34 232,-68 69,-40 137,-79 275,-79 137,0 206,40 275,79 59,34 118,68 232,68 114,0 173,-34 232,-68 69,-40 137,-79 275,-79 137,0 206,40 275,79 59,34 118,68 232,68 114,0 173,-34 232,-68 69,-40 137,-79 275,-79 137,0 206,40 275,79 52,30 104,60 194,67l0 -262c-112,-6 -174,-42 -235,-78 -59,-34 -117,-69 -234,-69 -116,0 -175,34 -234,69 -68,40 -136,79 -273,79l0 0c-137,0 -205,-39 -273,-79 -59,-34 -117,-69 -234,-69 -116,0 -175,34 -234,69 -68,40 -136,79 -273,79l0 0c-137,0 -205,-39 -273,-79 -59,-34 -117,-69 -234,-69 -116,0 -175,34 -234,69 -68,40 -136,79 -273,79l0 0c-137,0 -205,-39 -273,-79z"/>
    <path class="fil1" d="M3820 3919c137,0 205,40 273,79 59,34 118,69 234,68l0 0c116,0 175,-34 234,-68 68,-40 136,-79 273,-79 137,0 205,40 273,79 59,34 118,69 234,68l0 0c116,0 175,-34 234,-68 68,-40 136,-79 273,-79 137,0 205,40 273,79 59,34 118,69 234,68l0 0c116,0 175,-34 234,-68 68,-40 136,-79 273,-79 137,0 205,40 273,79 59,34 118,69 234,68l39 0 0 38 0 338 0 38 -38 0c-135,0 -203,-39 -271,-79 -60,-34 -119,-69 -236,-69 -117,0 -177,35 -236,69 -68,39 -136,79 -271,79 -135,0 -203,-39 -271,-79 -60,-34 -119,-69 -236,-69 -117,0 -177,35 -236,69 -68,39 -136,79 -271,79 -135,0 -203,-39 -271,-79 -60,-34 -119,-69 -236,-69 -117,0 -177,35 -236,69 -68,39 -136,79 -271,79 -135,0 -203,-39 -271,-79 -60,-34 -119,-69 -236,-69 -117,0 -177,35 -236,69 -68,39 -136,79 -271,79 -135,0 -203,-39 -271,-79 -60,-34 -119,-69 -236,-69 -117,0 -177,35 -236,69 -68,39 -136,79 -271,79 -135,0 -203,-39 -271,-79 -60,-34 -119,-69 -236,-69 -117,0 -177,35 -236,69 -68,39 -136,79 -271,79l-38 0 0 -38 0 -338 0 -38 39 0c116,0 175,-34 234,-68 68,-40 136,-79 273,-79 137,0 205,40 273,79 59,34 118,69 234,68l0 0c116,0 175,-34 234,-68 68,-40 136,-79 273,-79 137,0 205,40 273,79 59,34 118,69 234,68l0 0c116,0 175,-34 234,-68 68,-40 136,-79 273,-79zm234 145c-59,-34 -117,-69 -234,-69 -116,0 -175,34 -234,69 -68,40 -136,79 -273,79l0 0c-137,0 -205,-39 -273,-79 -59,-34 -117,-69 -234,-69 -116,0 -175,34 -234,69 -68,40 -136,79 -273,79l0 0c-137,0 -205,-39 -273,-79 -59,-34 -117,-69 -234,-69 -116,0 -175,34 -234,69 -61,36 -123,72 -235,78l0 262c90,-7 142,-37 194,-67 69,-40 137,-79 275,-79 137,0 206,40 275,79 59,34 118,68 232,68 114,0 173,-34 232,-68 69,-40 137,-79 275,-79 137,0 206,40 275,79 59,34 118,68 232,68 114,0 173,-34 232,-68 69,-40 137,-79 275,-79 137,0 206,40 275,79 59,34 118,68 232,68 114,0 173,-34 232,-68 69,-40 137,-79 275,-79 137,0 206,40 275,79 59,34 118,68 232,68 114,0 173,-34 232,-68 69,-40 137,-79 275,-79 137,0 206,40 275,79 59,34 118,68 232,68 114,0 173,-34 232,-68 69,-40 137,-79 275,-79 137,0 206,40 275,79 52,30 104,60 194,67l0 -262c-112,-6 -174,-42 -235,-78 -59,-34 -117,-69 -234,-69 -116,0 -175,34 -234,69 -68,40 -136,79 -273,79l0 0c-137,0 -205,-39 -273,-79 -59,-34 -117,-69 -234,-69 -116,0 -175,34 -234,69 -68,40 -136,79 -273,79l0 0c-137,0 -205,-39 -273,-79 -59,-34 -117,-69 -234,-69 -116,0 -175,34 -234,69 -68,40 -136,79 -273,79l0 0c-137,0 -205,-39 -273,-79z"/>
    <path class="fil4" d="M3820 4296c254,0 254,149 507,148 254,1 254,-148 507,-148 254,0 254,149 507,148 254,1 254,-148 507,-148 254,0 254,149 507,148 254,1 254,-148 507,-148 254,0 254,149 507,148l0 338c-250,0 -254,-148 -507,-148 -254,0 -257,148 -507,148 -250,0 -254,-148 -507,-148 -254,0 -257,148 -507,148 -250,0 -254,-148 -507,-148 -254,0 -257,148 -507,148 -250,0 -254,-148 -507,-148 -254,0 -257,148 -507,148 -250,0 -254,-148 -507,-148 -254,0 -257,148 -507,148 -250,0 -254,-148 -507,-148 -254,0 -257,148 -507,148l0 -338c254,1 254,-148 507,-148 254,0 254,149 507,148 254,1 254,-148 507,-148 254,0 254,149 507,148 254,1 254,-148 507,-148z"/>
    <path class="fil1" d="M3820 4258c137,0 205,40 273,79 59,34 118,69 234,68l0 0c116,0 175,-34 234,-68 68,-40 136,-79 273,-79 137,0 205,40 273,79 59,34 118,69 234,68l0 0c116,0 175,-34 234,-68 68,-40 136,-79 273,-79 137,0 205,40 273,79 59,34 118,69 234,68l0 0c116,0 175,-34 234,-68 68,-40 136,-79 273,-79 137,0 205,40 273,79 59,34 118,69 234,68l39 0 0 38 0 338 0 38 -38 0c-135,0 -203,-39 -271,-79 -60,-34 -119,-69 -236,-69 -117,0 -177,35 -236,69 -68,39 -136,79 -271,79 -135,0 -203,-39 -271,-79 -60,-34 -119,-69 -236,-69 -117,0 -177,35 -236,69 -68,39 -136,79 -271,79 -135,0 -203,-39 -271,-79 -60,-34 -119,-69 -236,-69 -117,0 -177,35 -236,69 -68,39 -136,79 -271,79 -135,0 -203,-39 -271,-79 -60,-34 -119,-69 -236,-69 -117,0 -177,35 -236,69 -68,39 -136,79 -271,79 -135,0 -203,-39 -271,-79 -60,-34 -119,-69 -236,-69 -117,0 -177,35 -236,69 -68,39 -136,79 -271,79 -135,0 -203,-39 -271,-79 -60,-34 -119,-69 -236,-69 -117,0 -177,35 -236,69 -68,39 -136,79 -271,79l-38 0 0 -38 0 -338 0 -38 39 0c116,0 175,-34 234,-68 68,-40 136,-79 273,-79 137,0 205,40 273,79 59,34 118,69 234,68l0 0c116,0 175,-34 234,-68 68,-40 136,-79 273,-79 137,0 205,40 273,79 59,34 118,69 234,68l0 0c116,0 175,-34 234,-68 68,-40 136,-79 273,-79zm234 145c-59,-34 -117,-69 -234,-69 -116,0 -175,34 -234,69 -68,40 -136,79 -273,79l0 0c-137,0 -205,-39 -273,-79 -59,-34 -117,-69 -234,-69 -116,0 -175,34 -234,69 -68,40 -136,79 -273,79l0 0c-137,0 -205,-39 -273,-79 -59,-34 -117,-69 -234,-69 -116,0 -175,34 -234,69 -61,36 -123,72 -235,78l0 262c90,-7 142,-37 194,-67 69,-40 137,-79 275,-79 137,0 206,40 275,79 59,34 118,68 232,68 114,0 173,-34 232,-68 69,-40 137,-79 275,-79 137,0 206,40 275,79 59,34 118,68 232,68 114,0 173,-34 232,-68 69,-40 137,-79 275,-79 137,0 206,40 275,79 59,34 118,68 232,68 114,0 173,-34 232,-68 69,-40 137,-79 275,-79 137,0 206,40 275,79 59,34 118,68 232,68 114,0 173,-34 232,-68 69,-40 137,-79 275,-79 137,0 206,40 275,79 59,34 118,68 232,68 114,0 173,-34 232,-68 69,-40 137,-79 275,-79 137,0 206,40 275,79 52,30 104,60 194,67l0 -262c-112,-6 -174,-42 -235,-78 -59,-34 -117,-69 -234,-69 -116,0 -175,34 -234,69 -68,40 -136,79 -273,79l0 0c-137,0 -205,-39 -273,-79 -59,-34 -117,-69 -234,-69 -116,0 -175,34 -234,69 -68,40 -136,79 -273,79l0 0c-137,0 -205,-39 -273,-79 -59,-34 -117,-69 -234,-69 -116,0 -175,34 -234,69 -68,40 -136,79 -273,79l0 0c-137,0 -205,-39 -273,-79z"/>
    <path class="fil1" d="M3820 4596c137,0 205,40 273,79 59,34 118,69 234,68l0 0c116,0 175,-34 234,-68 68,-40 136,-79 273,-79 137,0 205,40 273,79 59,34 118,69 234,68l0 0c116,0 175,-34 234,-68 68,-40 136,-79 273,-79 137,0 205,40 273,79 59,34 118,69 234,68l0 0c116,0 175,-34 234,-68 68,-40 136,-79 273,-79 137,0 205,40 273,79 59,34 118,69 234,68l39 0 0 38 0 338 0 38 -38 0c-135,0 -203,-39 -271,-79 -60,-34 -119,-69 -236,-69 -117,0 -177,35 -236,69 -68,39 -136,79 -271,79 -135,0 -203,-39 -271,-79 -60,-34 -119,-69 -236,-69 -117,0 -177,35 -236,69 -68,39 -136,79 -271,79 -135,0 -203,-39 -271,-79 -60,-34 -119,-69 -236,-69 -117,0 -177,35 -236,69 -68,39 -136,79 -271,79 -135,0 -203,-39 -271,-79 -60,-34 -119,-69 -236,-69 -117,0 -177,35 -236,69 -68,39 -136,79 -271,79 -135,0 -203,-39 -271,-79 -60,-34 -119,-69 -236,-69 -117,0 -177,35 -236,69 -68,39 -136,79 -271,79 -135,0 -203,-39 -271,-79 -60,-34 -119,-69 -236,-69 -117,0 -177,35 -236,69 -68,39 -136,79 -271,79l-38 0 0 -38 0 -338 0 -38 39 0c116,0 175,-34 234,-68 68,-40 136,-79 273,-79 137,0 205,40 273,79 59,34 118,69 234,68l0 0c116,0 175,-34 234,-68 68,-40 136,-79 273,-79 137,0 205,40 273,79 59,34 118,69 234,68l0 0c116,0 175,-34 234,-68 68,-40 136,-79 273,-79zm234 145c-59,-34 -117,-69 -234,-69 -116,0 -175,34 -234,69 -68,40 -136,79 -273,79l0 0c-137,0 -205,-39 -273,-79 -59,-34 -117,-69 -234,-69 -116,0 -175,34 -234,69 -68,40 -136,79 -273,79l0 0c-137,0 -205,-39 -273,-79 -59,-34 -117,-69 -234,-69 -116,0 -175,34 -234,69 -61,36 -123,72 -235,78l0 262c90,-7 142,-37 194,-67 69,-40 137,-79 275,-79 137,0 206,40 275,79 59,34 118,68 232,68 114,0 173,-34 232,-68 69,-40 137,-79 275,-79 137,0 206,40 275,79 59,34 118,68 232,68 114,0 173,-34 232,-68 69,-40 137,-79 275,-79 137,0 206,40 275,79 59,34 118,68 232,68 114,0 173,-34 232,-68 69,-40 137,-79 275,-79 137,0 206,40 275,79 59,34 118,68 232,68 114,0 173,-34 232,-68 69,-40 137,-79 275,-79 137,0 206,40 275,79 59,34 118,68 232,68 114,0 173,-34 232,-68 69,-40 137,-79 275,-79 137,0 206,40 275,79 52,30 104,60 194,67l0 -262c-112,-6 -174,-42 -235,-78 -59,-34 -117,-69 -234,-69 -116,0 -175,34 -234,69 -68,40 -136,79 -273,79l0 0c-137,0 -205,-39 -273,-79 -59,-34 -117,-69 -234,-69 -116,0 -175,34 -234,69 -68,40 -136,79 -273,79l0 0c-137,0 -205,-39 -273,-79 -59,-34 -117,-69 -234,-69 -116,0 -175,34 -234,69 -68,40 -136,79 -273,79l0 0c-137,0 -205,-39 -273,-79z"/>
    <path class="fil4" d="M3820 4973c254,0 254,149 507,148 254,1 254,-148 507,-148 254,0 254,149 507,148 254,1 254,-148 507,-148 254,0 254,149 507,148 254,1 254,-148 507,-148 254,0 254,149 507,148l0 338c-250,0 -254,-148 -507,-148 -254,0 -257,148 -507,148 -250,0 -254,-148 -507,-148 -254,0 -257,148 -507,148 -250,0 -254,-148 -507,-148 -254,0 -257,148 -507,148 -250,0 -254,-148 -507,-148 -254,0 -257,148 -507,148 -250,0 -254,-148 -507,-148 -254,0 -257,148 -507,148 -250,0 -254,-148 -507,-148 -254,0 -257,148 -507,148l0 -338c254,1 254,-148 507,-148 254,0 254,149 507,148 254,1 254,-148 507,-148 254,0 254,149 507,148 254,1 254,-148 507,-148z"/>
    <path class="fil1" d="M3820 4935c137,0 205,40 273,79 59,34 118,69 234,68l0 0c116,0 175,-34 234,-68 68,-40 136,-79 273,-79 137,0 205,40 273,79 59,34 118,69 234,68l0 0c116,0 175,-34 234,-68 68,-40 136,-79 273,-79 137,0 205,40 273,79 59,34 118,69 234,68l0 0c116,0 175,-34 234,-68 68,-40 136,-79 273,-79 137,0 205,40 273,79 59,34 118,69 234,68l39 0 0 38 0 338 0 38 -38 0c-135,0 -203,-39 -271,-79 -60,-34 -119,-69 -236,-69 -117,0 -177,35 -236,69 -68,39 -136,79 -271,79 -135,0 -203,-39 -271,-79 -60,-34 -119,-69 -236,-69 -117,0 -177,35 -236,69 -68,39 -136,79 -271,79 -135,0 -203,-39 -271,-79 -60,-34 -119,-69 -236,-69 -117,0 -177,35 -236,69 -68,39 -136,79 -271,79 -135,0 -203,-39 -271,-79 -60,-34 -119,-69 -236,-69 -117,0 -177,35 -236,69 -68,39 -136,79 -271,79 -135,0 -203,-39 -271,-79 -60,-34 -119,-69 -236,-69 -117,0 -177,35 -236,69 -68,39 -136,79 -271,79 -135,0 -203,-39 -271,-79 -60,-34 -119,-69 -236,-69 -117,0 -177,35 -236,69 -68,39 -136,79 -271,79l-38 0 0 -38 0 -338 0 -38 39 0c116,0 175,-34 234,-68 68,-40 136,-79 273,-79 137,0 205,40 273,79 59,34 118,69 234,68l0 0c116,0 175,-34 234,-68 68,-40 136,-79 273,-79 137,0 205,40 273,79 59,34 118,69 234,68l0 0c116,0 175,-34 234,-68 68,-40 136,-79 273,-79zm234 145c-59,-34 -117,-69 -234,-69 -116,0 -175,34 -234,69 -68,40 -136,79 -273,79l0 0c-137,0 -205,-39 -273,-79 -59,-34 -117,-69 -234,-69 -116,0 -175,34 -234,69 -68,40 -136,79 -273,79l0 0c-137,0 -205,-39 -273,-79 -59,-34 -117,-69 -234,-69 -116,0 -175,34 -234,69 -61,36 -123,72 -235,78l0 262c90,-7 142,-37 194,-67 69,-40 137,-79 275,-79 137,0 206,40 275,79 59,34 118,68 232,68 114,0 173,-34 232,-68 69,-40 137,-79 275,-79 137,0 206,40 275,79 59,34 118,68 232,68 114,0 173,-34 232,-68 69,-40 137,-79 275,-79 137,0 206,40 275,79 59,34 118,68 232,68 114,0 173,-34 232,-68 69,-40 137,-79 275,-79 137,0 206,40 275,79 59,34 118,68 232,68 114,0 173,-34 232,-68 69,-40 137,-79 275,-79 137,0 206,40 275,79 59,34 118,68 232,68 114,0 173,-34 232,-68 69,-40 137,-79 275,-79 137,0 206,40 275,79 52,30 104,60 194,67l0 -262c-112,-6 -174,-42 -235,-78 -59,-34 -117,-69 -234,-69 -116,0 -175,34 -234,69 -68,40 -136,79 -273,79l0 0c-137,0 -205,-39 -273,-79 -59,-34 -117,-69 -234,-69 -116,0 -175,34 -234,69 -68,40 -136,79 -273,79l0 0c-137,0 -205,-39 -273,-79 -59,-34 -117,-69 -234,-69 -116,0 -175,34 -234,69 -68,40 -136,79 -273,79l0 0c-137,0 -205,-39 -273,-79z"/>
    <path class="fil1" d="M3820 5273c137,0 205,40 273,79 59,34 118,69 234,68l0 0c116,0 175,-34 234,-68 68,-40 136,-79 273,-79 137,0 205,40 273,79 59,34 118,69 234,68l0 0c116,0 175,-34 234,-68 68,-40 136,-79 273,-79 137,0 205,40 273,79 59,34 118,69 234,68l0 0c116,0 175,-34 234,-68 68,-40 136,-79 273,-79 137,0 205,40 273,79 59,34 118,69 234,68l39 0 0 38 0 338 0 38 -38 0c-135,0 -203,-39 -271,-79 -60,-34 -119,-69 -236,-69 -117,0 -177,35 -236,69 -68,39 -136,79 -271,79 -135,0 -203,-39 -271,-79 -60,-34 -119,-69 -236,-69 -117,0 -177,35 -236,69 -68,39 -136,79 -271,79 -135,0 -203,-39 -271,-79 -60,-34 -119,-69 -236,-69 -117,0 -177,35 -236,69 -68,39 -136,79 -271,79 -135,0 -203,-39 -271,-79 -60,-34 -119,-69 -236,-69 -117,0 -177,35 -236,69 -68,39 -136,79 -271,79 -135,0 -203,-39 -271,-79 -60,-34 -119,-69 -236,-69 -117,0 -177,35 -236,69 -68,39 -136,79 -271,79 -135,0 -203,-39 -271,-79 -60,-34 -119,-69 -236,-69 -117,0 -177,35 -236,69 -68,39 -136,79 -271,79l-38 0 0 -38 0 -338 0 -38 39 0c116,0 175,-34 234,-68 68,-40 136,-79 273,-79 137,0 205,40 273,79 59,34 118,69 234,68l0 0c116,0 175,-34 234,-68 68,-40 136,-79 273,-79 137,0 205,40 273,79 59,34 118,69 234,68l0 0c116,0 175,-34 234,-68 68,-40 136,-79 273,-79zm234 145c-59,-34 -117,-69 -234,-69 -116,0 -175,34 -234,69 -68,40 -136,79 -273,79l0 0c-137,0 -205,-39 -273,-79 -59,-34 -117,-69 -234,-69 -116,0 -175,34 -234,69 -68,40 -136,79 -273,79l0 0c-137,0 -205,-39 -273,-79 -59,-34 -117,-69 -234,-69 -116,0 -175,34 -234,69 -61,36 -123,72 -235,78l0 262c90,-7 142,-37 194,-67 69,-40 137,-79 275,-79 137,0 206,40 275,79 59,34 118,68 232,68 114,0 173,-34 232,-68 69,-40 137,-79 275,-79 137,0 206,40 275,79 59,34 118,68 232,68 114,0 173,-34 232,-68 69,-40 137,-79 275,-79 137,0 206,40 275,79 59,34 118,68 232,68 114,0 173,-34 232,-68 69,-40 137,-79 275,-79 137,0 206,40 275,79 59,34 118,68 232,68 114,0 173,-34 232,-68 69,-40 137,-79 275,-79 137,0 206,40 275,79 59,34 118,68 232,68 114,0 173,-34 232,-68 69,-40 137,-79 275,-79 137,0 206,40 275,79 52,30 104,60 194,67l0 -262c-112,-6 -174,-42 -235,-78 -59,-34 -117,-69 -234,-69 -116,0 -175,34 -234,69 -68,40 -136,79 -273,79l0 0c-137,0 -205,-39 -273,-79 -59,-34 -117,-69 -234,-69 -116,0 -175,34 -234,69 -68,40 -136,79 -273,79l0 0c-137,0 -205,-39 -273,-79 -59,-34 -117,-69 -234,-69 -116,0 -175,34 -234,69 -68,40 -136,79 -273,79l0 0c-137,0 -205,-39 -273,-79z"/>
    <path class="fil4" d="M3820 5650c254,0 254,149 507,148 254,1 254,-148 507,-148 254,0 254,149 507,148 254,1 254,-148 507,-148 254,0 254,149 507,148 254,1 254,-148 507,-148 254,0 254,149 507,148l0 338c-250,0 -254,-148 -507,-148 -254,0 -257,148 -507,148 -250,0 -254,-148 -507,-148 -254,0 -257,148 -507,148 -250,0 -254,-148 -507,-148 -254,0 -257,148 -507,148 -250,0 -254,-148 -507,-148 -254,0 -257,148 -507,148 -250,0 -254,-148 -507,-148 -254,0 -257,148 -507,148 -250,0 -254,-148 -507,-148 -254,0 -257,148 -507,148l0 -338c254,1 254,-148 507,-148 254,0 254,149 507,148 254,1 254,-148 507,-148 254,0 254,149 507,148 254,1 254,-148 507,-148z"/>
    <path class="fil1" d="M3820 5611c137,0 205,40 273,79 59,34 118,69 234,68l0 0c116,0 175,-34 234,-68 68,-40 136,-79 273,-79 137,0 205,40 273,79 59,34 118,69 234,68l0 0c116,0 175,-34 234,-68 68,-40 136,-79 273,-79 137,0 205,40 273,79 59,34 118,69 234,68l0 0c116,0 175,-34 234,-68 68,-40 136,-79 273,-79 137,0 205,40 273,79 59,34 118,69 234,68l39 0 0 38 0 338 0 38 -38 0c-135,0 -203,-39 -271,-79 -60,-34 -119,-69 -236,-69 -117,0 -177,35 -236,69 -68,39 -136,79 -271,79 -135,0 -203,-39 -271,-79 -60,-34 -119,-69 -236,-69 -117,0 -177,35 -236,69 -68,39 -136,79 -271,79 -135,0 -203,-39 -271,-79 -60,-34 -119,-69 -236,-69 -117,0 -177,35 -236,69 -68,39 -136,79 -271,79 -135,0 -203,-39 -271,-79 -60,-34 -119,-69 -236,-69 -117,0 -177,35 -236,69 -68,39 -136,79 -271,79 -135,0 -203,-39 -271,-79 -60,-34 -119,-69 -236,-69 -117,0 -177,35 -236,69 -68,39 -136,79 -271,79 -135,0 -203,-39 -271,-79 -60,-34 -119,-69 -236,-69 -117,0 -177,35 -236,69 -68,39 -136,79 -271,79l-38 0 0 -38 0 -338 0 -38 39 0c116,0 175,-34 234,-68 68,-40 136,-79 273,-79 137,0 205,40 273,79 59,34 118,69 234,68l0 0c116,0 175,-34 234,-68 68,-40 136,-79 273,-79 137,0 205,40 273,79 59,34 118,69 234,68l0 0c116,0 175,-34 234,-68 68,-40 136,-79 273,-79zm234 145c-59,-34 -117,-69 -234,-69 -116,0 -175,34 -234,69 -68,40 -136,79 -273,79l0 0c-137,0 -205,-39 -273,-79 -59,-34 -117,-69 -234,-69 -116,0 -175,34 -234,69 -68,40 -136,79 -273,79l0 0c-137,0 -205,-39 -273,-79 -59,-34 -117,-69 -234,-69 -116,0 -175,34 -234,69 -61,36 -123,72 -235,78l0 262c90,-7 142,-37 194,-67 69,-40 137,-79 275,-79 137,0 206,40 275,79 59,34 118,68 232,68 114,0 173,-34 232,-68 69,-40 137,-79 275,-79 137,0 206,40 275,79 59,34 118,68 232,68 114,0 173,-34 232,-68 69,-40 137,-79 275,-79 137,0 206,40 275,79 59,34 118,68 232,68 114,0 173,-34 232,-68 69,-40 137,-79 275,-79 137,0 206,40 275,79 59,34 118,68 232,68 114,0 173,-34 232,-68 69,-40 137,-79 275,-79 137,0 206,40 275,79 59,34 118,68 232,68 114,0 173,-34 232,-68 69,-40 137,-79 275,-79 137,0 206,40 275,79 52,30 104,60 194,67l0 -262c-112,-6 -174,-42 -235,-78 -59,-34 -117,-69 -234,-69 -116,0 -175,34 -234,69 -68,40 -136,79 -273,79l0 0c-137,0 -205,-39 -273,-79 -59,-34 -117,-69 -234,-69 -116,0 -175,34 -234,69 -68,40 -136,79 -273,79l0 0c-137,0 -205,-39 -273,-79 -59,-34 -117,-69 -234,-69 -116,0 -175,34 -234,69 -68,40 -136,79 -273,79l0 0c-137,0 -205,-39 -273,-79z"/>
    <path class="fil5" d="M2673 1871l3307 0 1058 1117 -5424 0 1058 -1117zm1654 0m2183 559m-2183 559m-2183 -559"/>
    <path class="fil1" d="M2673 1832l3307 0 16 0 11 12 1058 1117 62 65 -89 0 -5424 0 -89 0 62 -65 1058 -1117 11 -12 16 0zm3292 77l-3276 0 -985 1040 5247 0 -985 -1040z"/>
    <rect class="fil6" x="1615" y="2985" width="5424" height="340"/>
    <polygon class="fil2" points="1515,2957 2118,2957 2118,2785 2920,2785 2920,2957 3323,2957 3323,2785 4126,2785 4126,2957 4528,2957 4528,2785 5331,2785 5331,2957 5734,2957 5734,2785 6536,2785 6536,2957 7139,2957 7139,3157 6336,3157 6336,2985 5934,2985 5934,3157 5131,3157 5131,2985 4728,2985 4728,3157 3926,3157 3926,2985 3523,2985 3523,3157 2720,3157 2720,2985 2318,2985 2318,3157 1515,3157 "/>
    <path class="fil1" d="M1515 2940l585 0 0 -154 0 -18 18 0 803 0 18 0 0 18 0 154 368 0 0 -154 0 -18 18 0 803 0 18 0 0 18 0 154 368 0 0 -154 0 -18 18 0 803 0 18 0 0 18 0 154 368 0 0 -154 0 -18 18 0 803 0 18 0 0 18 0 154 585 0 18 0 0 18 0 200 0 18 -18 0 -803 0 -18 0 0 -18 0 -154 -368 0 0 154 0 18 -18 0 -803 0 -18 0 0 -18 0 -154 -368 0 0 154 0 18 -18 0 -803 0 -18 0 0 -18 0 -154 -368 0 0 154 0 18 -18 0 -803 0 -18 0 0 -18 0 -154 -368 0 0 154 0 18 -18 0 -803 0 -18 0 0 -18 0 -200 0 -18 18 0zm603 35l-585 0 0 165 768 0 0 -154 0 -18 18 0 403 0 18 0 0 18 0 154 768 0 0 -154 0 -18 18 0 403 0 18 0 0 18 0 154 768 0 0 -154 0 -18 18 0 403 0 18 0 0 18 0 154 768 0 0 -154 0 -18 18 0 403 0 18 0 0 18 0 154 768 0 0 -165 -585 0 -18 0 0 -18 0 -154 -768 0 0 154 0 18 -18 0 -403 0 -18 0 0 -18 0 -154 -768 0 0 154 0 18 -18 0 -403 0 -18 0 0 -18 0 -154 -768 0 0 154 0 18 -18 0 -403 0 -18 0 0 -18 0 -154 -768 0 0 154 0 18 -18 0z"/>
    <polygon class="fil1" points="1615,3040 2200,3040 2200,2885 2200,2868 2218,2868 2820,2868 2838,2868 2838,2885 2838,3040 3406,3040 3406,2885 3406,2868 3423,2868 4026,2868 4043,2868 4043,2885 4043,3040 4611,3040 4611,2885 4611,2868 4628,2868 5231,2868 5249,2868 5249,2885 5249,3040 5816,3040 5816,2885 5816,2868 5834,2868 6436,2868 6454,2868 6454,2885 6454,3040 7039,3040 7039,3075 6436,3075 6419,3075 6419,3057 6419,2903 5851,2903 5851,3057 5851,3074 5834,3074 5231,3075 5214,3075 5214,3057 5214,2903 4646,2903 4646,3057 4646,3075 4628,3075 4026,3075 4008,3075 4008,3057 4008,2903 3441,2903 3441,3057 3441,3074 3423,3074 2820,3075 2803,3075 2803,3057 2803,2903 2235,2903 2235,3057 2235,3075 2218,3075 1615,3075 "/>
   </g>
  </g>
  <path class="fil7" d="M4327 38l-2712 0 0 3651c0,1565 2231,2726 2712,2726 481,0 2712,-1160 2712,-2726l0 -3651 -2712 0z"/>
  <path class="fil1" d="M4327 75l-2674 0 0 3613c0,596 331,1133 764,1568 686,689 1622,1120 1911,1120 289,0 1225,-431 1911,-1120 433,-435 764,-972 764,-1568l0 -3613 -2674 0zm-2712 -75l2712 0 2712 0c21,0 38,17 38,38l0 3651c0,618 -340,1173 -786,1621 -700,703 -1664,1142 -1964,1142 -300,0 -1264,-439 -1964,-1142 -445,-447 -786,-1002 -786,-1621l0 -3651c0,-21 17,-38 38,-38z"/>
 </g>
</svg>
